# xmcd CD database file
#
# Track frame offsets:
#	150
#	14967
#	29445
#	45855
#	60435
#	73355
#	89370
#	103522
#	125515
#	135332
#	148842
#	164032
#
# Disc length: 2373 seconds
#
# Revision: 0
# Processed by: cddbd v1.4PL0 Copyright (c) Steve Scherf et al.
# Submitted via: Feurio! 1.66 - http://www.feurio.com
#
DISCID=ae09430c
DTITLE=The Golden Fifties - Und Am Himmel Ziehen Wolken
DYEAR=1900
DGENRE=
TTITLE0=Mi Amor
TTITLE1=Lass Die Sonne Wieder Scheinen
TTITLE2=Ich Lieb´ Dich Monika
TTITLE3=Weine Nicht
TTITLE4=Kleine Vita
TTITLE5=Ciao, My Love, Goodbye
TTITLE6=Die Sterne Von Rhodos
TTITLE7=Und Am Himmel Ziehen Wolken
TTITLE8=Der Liebe Gott Muss A Tiroler Sein
TTITLE9=I Fahr Nach Nizza
TTITLE10=I Werd´ Di Vergess´n
TTITLE11=Vamos Muchachos
EXTD=
EXTT0=
EXTT1=
EXTT2=
EXTT3=
EXTT4=
EXTT5=
EXTT6=
EXTT7=
EXTT8=
EXTT9=
EXTT10=
EXTT11=
PLAYORDER=
